<svg width="384" height="463" viewBox="0 0 384 463" fill="none" xmlns="http://www.w3.org/2000/svg">
<path d="M69.7539 379.965C49.1289 386.234 33.3672 388.051 26.2773 386.879C23.8164 386.469 22.5273 385.824 22.5859 385.004C22.6445 384.242 24.0508 383.07 27.0391 381.488C35.7109 376.742 55.6914 370.473 90.6719 364.027C122.723 358.168 140.77 357.875 147.918 360.688C150.555 361.742 151.551 363.148 151.023 364.789C150.438 366.605 148.211 368.832 144.52 371.293C133.387 378.734 110.008 387.523 79.9492 392.973C76.1406 393.617 72.7422 394.32 69.7539 395.023C80.3008 382.25 92.5469 369.242 92.6055 369.184C93.1328 368.598 93.1914 367.895 92.7812 367.543C92.6641 367.484 92.6055 367.484 92.4883 367.426C92.4883 367.426 92.4883 367.426 92.4297 367.426C92.2539 367.367 92.0195 367.367 91.8438 367.426C90.9062 367.602 88.7383 368.422 84.5781 371.645C83.9336 372.113 83.6992 372.875 84.0508 373.344C84.4023 373.813 85.1641 373.754 85.75 373.285C86.1602 372.934 86.5703 372.641 86.9219 372.406C82.1172 377.621 73.9727 386.703 66.8242 395.727C64.0703 396.371 61.7266 397.074 59.7344 397.719C54.2266 399.594 51.2383 401.527 50.125 403.461C48.543 406.332 51.1797 408.734 56.1602 410.551C52.9375 415.824 51.5312 419.926 53.4648 421.273C53.9336 421.625 54.7539 421.391 55.2812 420.805C55.8086 420.219 55.8672 419.516 55.3984 419.164C54.0508 418.227 55.1641 415.238 57.7422 411.078C60.4375 411.957 63.7188 412.719 67.2344 413.363C71.2773 414.125 75.7305 414.711 80.125 415.121C93.8945 416.41 107.547 415.707 109.539 412.309C109.891 411.664 109.715 411.02 109.129 410.902C108.484 410.785 107.723 411.195 107.371 411.84C106.141 413.891 93.8945 413.949 81.2383 412.719C76.9023 412.367 72.5078 411.723 68.5234 411.02C65.0078 410.375 61.8438 409.613 59.207 408.793C61.4336 405.512 64.3047 401.703 67.4688 397.836C70.8672 397.016 74.8516 396.137 79.5391 395.316C110.066 389.75 133.914 380.785 145.457 373.051C149.852 370.121 152.605 367.25 153.426 364.73C154.305 362.035 153.074 359.867 149.5 358.402C142.117 355.531 123.602 355.707 91.0234 361.684C55.6914 368.188 35.3594 374.633 26.3945 379.438C22.2344 381.723 20.1836 383.891 20.0664 385.707C19.9492 387.465 21.6484 388.695 25.0469 389.281C32.4297 390.453 48.6602 388.695 69.6953 382.25C70.3984 382.016 70.9844 381.313 71.043 380.727C71.043 380.082 70.457 379.73 69.7539 379.965ZM64.5977 398.539C61.9609 401.938 59.5586 405.219 57.625 408.207C53.7578 406.801 51.5898 405.336 52.3516 403.93C52.9375 402.816 55.2812 401.469 59.793 400.004C61.1992 399.477 62.7812 399.008 64.5977 398.539ZM139.687 388.578C139.042 388.461 138.339 388.402 137.577 388.402C135.761 388.52 133.827 389.164 132.07 390.277C130.312 391.391 128.788 392.973 127.734 394.848C127.323 395.492 127.03 396.254 126.796 396.957C126.269 398.539 126.796 399.184 128.085 399.125C130.136 399.008 135.409 395.199 139.98 391.801C140.507 391.449 140.976 391.039 141.445 390.688C140.566 392.152 139.921 393.441 139.57 394.496C139.042 396.02 138.984 397.25 139.335 398.188C139.687 399.125 140.507 399.77 141.62 399.945C142.734 400.18 144.081 400.004 145.722 399.418C147.07 398.949 149.999 397.602 153.866 395.668C156.62 394.262 159.784 392.563 163.183 390.629C159.96 395.609 157.792 399.125 157.792 399.125C157.382 399.77 157.558 400.414 158.144 400.59C158.671 400.707 159.316 400.473 159.726 399.945C161.132 398.598 166.874 394.145 168.866 393.266C170.038 392.738 168.222 395.609 168.749 397.074C169.335 399.535 171.855 401 175.37 400.473C179.12 400.297 184.863 398.598 192.773 394.613C193.476 394.262 193.945 393.5 193.769 392.973C193.652 392.387 193.007 392.211 192.304 392.563C184.804 396.313 179.53 397.895 176.073 398.07C174.257 398.129 172.968 397.777 172.206 397.191C170.624 395.785 171.562 392.914 173.202 390.512C177.363 384.535 168.515 390.805 162.714 395.141C163.945 393.266 165.409 390.922 167.167 388.285C171.562 385.59 176.191 382.66 180.351 379.555C189.316 372.934 196.405 365.844 196.23 359.984C196.23 359.457 196.171 358.988 195.995 358.461C193.124 347.738 176.015 371.234 165.702 386.762C161.191 389.457 156.855 391.801 153.339 393.617C149.648 395.492 146.835 396.781 145.663 397.191C144.491 397.602 143.554 397.719 142.909 397.602C142.323 397.484 141.972 397.191 141.796 396.723C141.62 396.254 141.62 395.434 141.972 394.438C142.616 392.621 144.14 390.102 146.835 386.996C147.187 386.586 147.363 386.176 147.245 385.766C147.128 385.18 146.425 385.004 145.722 385.355C144.55 385.941 142.558 387.406 140.273 389.105C140.214 388.813 139.98 388.637 139.687 388.578ZM137.87 390.863C134.472 393.383 130.839 396.02 129.316 396.605C129.491 396.137 129.667 395.727 129.902 395.316C130.605 394.027 131.718 392.914 132.948 392.152C134.179 391.332 135.527 390.863 136.874 390.805C137.226 390.805 137.577 390.805 137.87 390.863ZM169.745 384.301C179.003 370.414 191.718 353.07 193.534 359.75C193.593 360.102 193.652 360.453 193.652 360.863C193.827 365.609 187.382 371.879 179.238 377.914C176.249 380.082 173.027 382.25 169.745 384.301ZM194.444 389.164C194.444 389.164 185.42 397.953 184.248 400.648C182.901 403.988 190.108 400.063 195.557 396.781C194.268 398.715 193.506 400.59 194.795 401.41C195.616 401.879 197.198 401.234 199.248 399.828C201.006 398.598 203.291 396.723 205.694 394.555C206.28 394.027 206.455 393.266 206.104 392.914C205.694 392.504 204.932 392.621 204.288 393.148C196.436 400.883 193.389 401.293 201.358 393.09C201.768 392.68 202.002 392.035 201.768 391.625C201.534 391.156 200.772 391.098 200.127 391.508C193.096 396.605 187.823 398.773 187.823 398.773C189.053 396.781 195.967 390.512 195.967 390.512C196.553 389.926 196.67 389.223 196.26 388.813C195.85 388.461 195.03 388.637 194.444 389.164ZM202.97 403.109C201.857 403.461 201.271 403.461 201.095 403.168C200.392 402.172 201.74 399.008 204.201 394.789C204.728 394.438 205.197 394.145 205.724 393.676C220.138 382.191 227.697 373.695 231.271 368.07C232.795 365.668 233.673 363.793 234.025 362.328C234.494 360.688 234.318 359.574 233.849 358.93C233.673 358.637 233.38 358.461 233.029 358.344C230.685 357.641 221.193 367.602 212.814 378.559C208.654 383.949 204.67 389.633 202.033 394.32C199.162 399.301 197.697 403.285 198.81 404.926C199.455 405.863 200.802 406.098 203.029 405.336C203.732 405.102 204.318 404.398 204.259 403.813C204.259 403.168 203.673 402.875 202.97 403.109ZM214.689 379.438C222.306 369.477 230.334 360.277 231.564 360.629C231.564 360.629 231.564 360.688 231.623 360.688C231.798 360.98 231.798 361.566 231.564 362.563C231.271 363.734 230.509 365.375 229.22 367.426C225.998 372.406 219.494 379.848 207.248 389.867C209.416 386.527 211.994 382.953 214.689 379.438ZM234.876 401.234C227.552 405.98 223.802 409.32 222.512 411.488C220.989 414.125 222.161 415.355 225.032 415.59C227.2 415.766 230.54 415.238 234.173 414.242C242.727 411.898 253.098 406.918 254.798 402.406C256.673 397.309 245.247 396.371 233.235 395.375C223.391 394.613 213.196 393.734 210.442 390.98C209.387 389.926 209.739 388.402 212.083 386.293C218.821 380.199 233.645 371.41 248.762 364.262C258.313 359.75 267.923 355.883 275.716 353.715C283.216 351.664 288.899 351.137 290.891 353.188C291.243 353.539 291.477 354.008 291.595 354.594C292.708 359.809 255.149 385.883 251.516 388.461L251.282 388.578C250.696 389.047 250.403 389.75 250.696 390.16C251.048 390.629 251.809 390.629 252.395 390.16L252.63 390.043C256.438 387.348 295.52 360.219 294.114 353.539C293.938 352.719 293.587 352.016 293.059 351.488C290.481 348.852 284.036 349.32 275.716 351.605C267.747 353.832 257.903 357.758 248.235 362.328C232.766 369.652 217.591 378.676 210.559 385.004C206.868 388.344 206.516 390.805 208.333 392.68C211.497 395.902 222.044 396.781 232.18 397.602C243.137 398.48 253.509 399.359 252.395 402.406C251.106 405.863 241.848 410.023 234.231 412.133C230.891 413.012 227.903 413.539 226.028 413.363C224.798 413.246 224.153 412.836 224.739 411.898C225.735 410.199 229.134 407.27 235.93 402.875C236.575 402.465 236.868 401.762 236.575 401.293C236.282 400.883 235.52 400.824 234.876 401.234ZM277.855 382.777C278.324 382.777 278.676 382.953 278.734 383.363C278.852 383.891 278.441 384.652 277.738 385.004C276.625 385.531 274.633 387.699 274.633 387.699C274.105 388.285 273.285 388.461 272.816 388.168C272.348 387.816 272.406 387.055 272.992 386.527C272.992 386.527 275.512 383.773 277.27 382.953C277.445 382.836 277.68 382.777 277.855 382.777ZM284.594 387.172C284.887 387.172 285.121 387.289 285.297 387.523C285.531 387.934 285.414 388.461 285.004 388.93L280.082 395.199C283.832 392.797 288.402 390.219 290.277 390.98C292.621 391.859 291.918 393.852 291.156 395.961C290.805 396.957 290.453 397.953 290.688 398.598C290.805 398.949 292.914 397.895 295.082 396.605C296.781 395.609 298.422 394.555 299.711 393.734C300.355 393.266 300.883 392.914 301.352 392.68C301.996 392.27 302.758 392.328 302.934 392.855C303.168 393.383 302.816 394.145 302.113 394.555C301.82 394.73 301.234 395.082 300.59 395.551C299.301 396.371 297.543 397.484 295.844 398.539C292.328 400.531 288.93 401.938 288.227 400.004C287.758 398.773 288.285 397.367 288.754 395.961C289.164 394.73 289.633 393.559 288.695 393.207C286.586 392.445 275.629 400.707 275.629 400.707C275.16 401.059 274.574 401.176 274.223 401C273.695 400.707 273.637 400.004 274.105 399.418L279.145 393.09C273.988 396.547 266.898 401.117 265.258 400.824C261.508 400.18 268.246 393.031 268.246 393.031C268.832 392.445 269.594 392.211 270.062 392.563C270.531 392.914 270.473 393.617 269.945 394.203C269.945 394.203 266.02 398.363 266.488 398.48C268.012 398.715 283.539 387.582 283.598 387.523C283.949 387.289 284.242 387.172 284.594 387.172ZM319.78 383.539C312.691 389.398 302.73 397.016 300.679 395.902C300.503 395.785 300.562 395.492 300.855 395.023C301.265 394.203 302.144 393.266 303.198 392.211C304.37 391.098 305.835 389.867 307.417 388.754C311.695 385.648 316.851 383.012 319.78 383.539ZM306.362 387.055C304.605 388.285 303.023 389.574 301.734 390.863C300.386 392.152 299.273 393.441 298.687 394.496C297.749 396.137 297.691 397.426 298.921 398.07C302.378 399.945 316.441 388.871 323.882 382.719C321.831 386.176 318.784 391.215 315.093 396.898C310.698 397.953 306.187 398.891 301.734 399.828C289.253 402.406 277.124 404.926 269.097 409.789C260.366 415.121 256.382 422.973 261.831 435.922C272.027 460.355 299.859 424.027 316.265 398.891C320.777 397.777 325.112 396.488 329.155 394.965C329.859 394.672 330.386 393.969 330.327 393.383C330.269 392.797 329.683 392.504 328.98 392.797C325.581 394.086 321.89 395.199 318.023 396.195C324.234 386.469 328.511 378.969 328.862 378.324C329.097 377.914 329.155 377.387 328.862 377.094C328.511 376.684 327.691 376.801 327.105 377.328C327.105 377.328 325.112 379.086 322.183 381.547C318.609 379.965 311.812 383.129 306.362 387.055ZM264.234 434.457C259.429 422.914 262.593 416.117 269.859 411.664C277.417 407.094 289.195 404.691 301.382 402.172C305.366 401.352 309.409 400.531 313.335 399.594C297.749 423.324 272.964 455.375 264.234 434.457ZM358.952 392.621C358.893 392.621 344.303 395.844 338.209 398.48C339.381 396.781 340.67 394.438 340.553 391.918C340.319 387.289 331.588 394.203 325.084 399.945C326.432 398.07 327.721 396.254 328.952 394.438C344.772 384.594 358.248 367.484 363.991 357.348C366.276 353.305 367.389 350.199 367.038 348.852C366.569 346.859 364.284 347.328 359.948 351.488C353.327 357.816 340.084 374.164 317.995 406.684C317.643 407.152 317.643 407.738 317.995 408.031C318.405 408.383 319.225 408.207 319.752 407.68C319.811 407.621 337.858 389.809 337.975 392.855C338.092 395.082 336.452 397.484 335.455 398.832C334.752 399.828 334.225 400.531 334.401 401.176C334.635 402.113 335.573 402.055 337.799 400.941C342.78 398.48 358.6 394.965 358.659 394.965C359.362 394.789 359.948 394.145 360.065 393.5C360.123 392.855 359.596 392.445 358.952 392.621ZM361.413 352.836C363.58 350.785 364.518 349.965 364.577 350.141C364.752 350.961 363.756 353.422 361.823 356.879C356.784 365.785 345.592 380.258 332.174 389.867C346.94 369.066 356.256 357.758 361.413 352.836Z" fill="black"/>
</svg>