<svg id="Layer_1" data-name="Layer 1" xmlns="http://www.w3.org/2000/svg" viewBox="0 0 1000 1000"><defs><style>.cls-1{fill:#fe0;}</style></defs><title>Artboard 2</title><rect class="cls-1" width="1000" height="1000"/><path d="M449.35472,588.18356l-12.28008-85.21035-91.6516-11.551-8.41442-58.386,181.67611-79.71534,2.22154,14.20139L352.2722,441.51551l5.39548,37.44192,91.6516,11.551,9.71956,67.4428,55.52312-58.055,38.45074,4.73349c3.37633.41544,6.89893.96132,10.3039,1.48986,10.3989,1.61126,21.15518,3.27831,30.42462,1.80956,20.85661-3.30394,28.72515-22.00191,31.56011-32.85319,5.46938-20.94105,3.83927-44.616,1.50947-60.78892-7.27289-50.46391-31.30225-82.90392-48.31808-80.44821-8.49284,1.22371-16.05375,10.91161-20.74351,26.57932-5.296,17.69442-6.32891,40.50911-2.90886,64.2414a180.22112,180.22112,0,0,0,9.54389,37.82644l-13.00164,4.90691a194.06652,194.06652,0,0,1-10.29787-40.75038c-3.702-25.68887-2.51226-50.623,3.35069-70.20991,6.4013-21.38138,17.79243-34.291,32.07584-36.34939,14.28491-2.06063,28.85181,7.11078,41.02407,25.81629,11.14987,17.13269,19.329,40.71645,23.03109,66.40531,2.51226,17.44108,4.23737,43.09753-1.82011,66.28318-6.28216,24.05273-21.89257,39.7506-42.83061,43.06661-11.42582,1.8103-23.27085-.02639-34.72683-1.802-3.45172-.53532-6.71344-1.04049-9.87413-1.42954l-31.5292-3.88149Z"/><polygon points="573.518 578.935 567.051 537.143 581.602 539.502 587.192 576.458 573.518 578.935"/><polygon points="520.906 367.48 512.334 357.817 510.496 357.817 470.182 450.905 509.909 480.822 518.269 469.721 487.284 446.387 520.906 367.48"/><polygon points="354.541 566.402 349.759 506.199 363.817 507.25 368.378 565.101 354.541 566.402"/><rect x="640.82916" y="320.35044" width="37.88795" height="13.89761" transform="translate(-75.6716 287.97469) rotate(-23.3243)"/><rect x="658.19831" y="360.068" width="39.90016" height="13.89734" transform="translate(-78.52004 218.56007) rotate(-17.32213)"/><rect x="678.78468" y="477.93334" width="13.89751" height="37.88879" transform="translate(120.81643 1127.73953) rotate(-84.08338)"/><rect x="671.43493" y="446.53332" width="39.90069" height="13.89738" transform="translate(-0.68808 1.0508) rotate(-0.08704)"/><rect x="668.44893" y="401.83917" width="39.84838" height="13.89754" transform="translate(-53.94444 108.905) rotate(-8.70599)"/><path d="M235.64051,615.06044c16.76278,0,24.99234,9.6509,24.99234,21.13146,0,8.33034-4.47077,17.27057-16.35705,20.21662l17.47344,29.25894H247.93382l-16.255-28.24333H222.8394v28.24333H211.25806v-70.607Zm0,9.448H222.8394V648.179h12.80111c9.04232,0,13.10475-4.97726,13.10475-11.987C248.74526,629.08,244.68283,624.50848,235.64051,624.50848Z"/><path d="M299.55316,686.58229c-16.05211,0-27.93839-11.37847-27.93839-28.954,0-17.57683,11.37848-28.85322,27.93839-28.85322,15.95,0,27.22641,11.07353,27.22641,27.53136a35.70713,35.70713,0,0,1-.40572,5.68924H283.60314c.81275,9.24517,7.41551,14.83363,15.95,14.83363,7.11187,0,11.07353-3.45516,13.20683-7.82253h12.49617C322.10725,678.75976,313.2678,686.58229,299.55316,686.58229Zm-15.84794-33.93257h30.98521c-.20286-8.63528-7.00979-14.12166-15.64507-14.12166C291.22282,638.52806,284.92369,643.81027,283.70522,652.64972Z"/><path d="M339.59247,639.138H332.9884v-9.448h6.60407v-3.963c0-12.90188,6.60276-18.489,21.23223-18.489v9.6509c-7.11057,0-9.55012,2.43824-9.55012,8.83814v3.963h10.36287v9.448H351.27458v46.52951H339.59247Z"/><path d="M395.981,686.58229c-16.0521,0-27.93838-11.37847-27.93838-28.954,0-17.57683,11.37847-28.85322,27.93838-28.85322,15.95,0,27.22642,11.07353,27.22642,27.53136a35.7083,35.7083,0,0,1-.40572,5.68924H380.031c.81275,9.24517,7.41551,14.83363,15.95,14.83363,7.11188,0,11.07354-3.45516,13.20684-7.82253H421.684C418.53507,678.75976,409.69561,686.58229,395.981,686.58229ZM380.133,652.64972h30.98522c-.20286-8.63528-7.00979-14.12166-15.64508-14.12166C387.65063,638.52806,381.3515,643.81027,380.133,652.64972Z"/><path d="M446.179,685.66746H434.59764V629.68991H446.179v8.12748c3.251-5.58846,8.83946-9.04231,16.76277-9.04231v11.98836H459.9957c-8.5332,0-13.81672,3.55594-13.81672,15.44222Z"/><path d="M495.80178,654.98654H481.47726v30.27455h-7.11188V614.247h21.4364c16.45783,0,23.97542,8.73737,23.97542,20.42079C519.7772,646.14708,512.46247,654.98654,495.80178,654.98654Zm0-6.09627c11.98837,0,16.66069-5.48507,16.66069-14.22244,0-9.14309-4.67232-14.42661-16.66069-14.42661H481.47726v28.649Z"/><path d="M531.674,610.08121h7.11188v75.17988H531.674Z"/><path d="M578.91937,686.07384c-15.74716,0-27.22772-10.97276-27.22772-28.54828,0-17.67629,11.27639-28.547,27.22772-28.547,16.255,0,26.21081,11.58134,26.21081,25.703a48.69779,48.69779,0,0,1-.20286,5.58715h-46.023c.60988,13.004,9.6522,19.8109,20.01507,19.8109,9.448,0,15.84794-4.97857,17.88046-12.39408h7.5176C601.7771,678.14921,592.83687,686.07384,578.91937,686.07384Zm-20.01507-31.5951h39.01192c.30494-12.9032-9.041-19.40519-19.3018-19.40519C568.5565,635.07355,559.717,641.57554,558.9043,654.47874Z"/><path d="M641.40938,628.97859c11.17561,0,18.79529,5.99419,21.9442,13.004V629.79134h7.11188v55.46975h-7.11188V672.96778c-3.251,7.11187-10.97145,13.10606-22.045,13.10606-15.13858,0-26.415-11.2764-26.415-28.64906S626.17,628.97859,641.40938,628.97859Zm1.32055,6.197c-11.68342,0-20.62365,8.12748-20.62365,22.24914,0,14.01959,8.94023,22.452,20.62365,22.452,11.37848,0,20.62365-8.53451,20.62365-22.35123S654.10841,635.17564,642.72993,635.17564Z"/><path d="M705.83113,686.07384c-12.59694,0-21.43509-6.29913-22.34992-16.45783h7.31473c.60989,6.095,5.8921,10.46364,14.93442,10.46364,7.92462,0,12.39408-4.2666,12.39408-9.55012,0-13.71463-33.32268-5.68923-33.32268-26.51575,0-8.22826,7.82254-15.03519,19.506-15.03519,11.88628,0,19.70882,6.29913,20.31871,16.96563h-7.11187c-.40572-6.197-4.97727-10.87067-13.4097-10.87067-7.41682,0-12.08914,3.963-12.08914,8.83946,0,15.03519,32.81357,7.00979,33.11851,26.61652C725.13423,679.46977,717.3117,686.07384,705.83113,686.07384Z"/><path d="M762.52982,686.07384c-15.74716,0-27.22772-10.97276-27.22772-28.54828,0-17.67629,11.27639-28.547,27.22772-28.547,16.255,0,26.21212,11.58134,26.21212,25.703a48.38714,48.38714,0,0,1-.20417,5.58715H742.51606c.60988,13.004,9.65089,19.8109,20.01376,19.8109,9.44934,0,15.84925-4.97857,17.88046-12.39408h7.5176C785.38886,678.14921,776.44732,686.07384,762.52982,686.07384Zm-20.01376-31.5951H781.528c.30363-12.9032-9.041-19.40519-19.3018-19.40519C752.167,635.07355,743.3275,641.57554,742.51606,654.47874Z"/></svg>